<?xml version="1.0" ?><svg viewBox="0 0 437.65 280.5" xmlns="http://www.w3.org/2000/svg"><defs><style>.cls-1{fill:#020203;opacity:0.15;}.cls-2{fill:#e2000f;}.cls-3{fill:#0094da;}.cls-4{fill:#fbbd00;}.cls-5{fill:#139334;}.cls-6{fill:#fff;}</style></defs><title/><g data-name="Capa 2" id="Capa_2"><g data-name="Capa 1" id="Capa_1-2"><polygon class="cls-1" points="247.59 184.82 121.33 206.92 115.75 195.29 151.37 184.82 151.37 178.17 90.41 193.92 110.76 208.77 0 228.16 180.44 280.5 424.15 242.22 247.59 184.82"/><polygon class="cls-2" points="144.71 67.27 136.23 267.02 158.32 266.27 180.44 280.5 211.99 90.39 214.34 65.85 144.71 67.27"/><polygon class="cls-3" points="185.32 89.14 180.44 280.5 424.15 242.22 432.48 48.98 185.32 89.14"/><path class="cls-4" d="M144.71,67.27,186,82.39s19.46,33.43,56.87,66.6,112.19,21.2,136.1-12.94c23.43-33.46,52.85-92,52.85-92L398,23.58Z"/><rect class="cls-2" height="31.24" transform="translate(147.56 477.22) rotate(-89.69)" width="49.1" x="289.12" y="148.81"/><polygon class="cls-5" points="242.47 56.51 252.92 62.33 256.51 24.84 314.74 12.52 316 44.98 328.51 55.12 327.69 0 247.29 6.06 242.47 56.51"/><polygon class="cls-6" points="221.19 78.35 432.48 43.41 437.65 48.07 223.96 84.33 221.19 78.35"/></g></g></svg>